<?xml version="1.0" encoding="UTF-8"?>
<svg version="1.1" xmlns="http://www.w3.org/2000/svg" width="800" height="1104">
<path d="M0 0 C58.94009132 -0.06875463 117.88018168 -0.12157974 176.82030472 -0.15319599 C183.78799944 -0.15693763 190.75569408 -0.16082734 197.72338867 -0.16479492 C198.41671639 -0.1651872 199.11004411 -0.16557948 199.82438176 -0.16598364 C222.25149267 -0.17874193 244.67858074 -0.2012565 267.10567784 -0.22889166 C290.82992865 -0.25807175 314.55416181 -0.27600509 338.27843052 -0.28226548 C352.47383689 -0.28636976 366.66917762 -0.29930519 380.86456377 -0.3237494 C390.61557914 -0.33967916 400.36656086 -0.34438406 410.11758827 -0.34050413 C415.73274417 -0.3385938 421.34778586 -0.34139979 426.96292114 -0.35761642 C470.27656852 -0.47657984 470.27656852 -0.47657984 491 3 C492.3182717 3.20656489 493.63669854 3.41214386 494.95532894 3.61640644 C497.8011082 4.07410819 500.61524605 4.60334527 503.4375 5.1875 C504.94654907 5.49506226 504.94654907 5.49506226 506.48608398 5.80883789 C518.56309493 8.38871045 530.3019829 12.07279398 542 16 C542.76070801 16.25362305 543.52141602 16.50724609 544.30517578 16.76855469 C619.32253098 42.19877455 681.0315213 100.54329857 715.97509766 170.88574219 C733.63775835 207.3218169 744.90250987 249.11648045 745.23828125 289.703125 C745.25304001 291.18533791 745.25304001 291.18533791 745.26809692 292.69749451 C745.90307928 373.08177573 721.50702411 451.3047377 664.859375 510.2265625 C663.72561201 511.34553727 662.58575858 512.45840521 661.4375 513.5625 C659.75811554 515.19257862 659.75811554 515.19257862 657.5625 518 C654.99889034 521.00129911 652.3247109 523.43476469 649.32421875 525.98046875 C647.68785493 527.40231765 646.08902086 528.86794076 644.51953125 530.36328125 C629.91617215 544.26633822 613.28738068 555.70144929 596 566 C595.28199219 566.43119141 594.56398438 566.86238281 593.82421875 567.30664062 C551.10922209 592.72479677 499.96839456 607.23111856 450.23799133 607.12025452 C448.76831821 607.12069136 447.29864516 607.12156835 445.82897252 607.12284368 C441.81765814 607.12506641 437.80637075 607.12109799 433.7950598 607.11606562 C429.45915267 607.11172921 425.12324695 607.1132098 420.78733826 607.1139679 C413.28409276 607.11449111 405.78085599 607.11136546 398.27761269 607.10573006 C387.42931035 607.09758763 376.58101222 607.09499703 365.73270717 607.09374207 C348.130152 607.09155585 330.52760148 607.08490745 312.92504883 607.07543945 C295.8303225 607.06625419 278.73559744 607.05917881 261.64086914 607.05493164 C260.58636266 607.05466892 259.53185619 607.05440619 258.44539497 607.05413551 C253.15501073 607.05283043 247.86462649 607.05156673 242.57424223 607.05032361 C198.71615736 607.03996441 154.85808109 607.02153332 111 607 C111 628.78 111 650.56 111 673 C249.27 673 387.54 673 530 673 C530 709.63 530 746.26 530 784 C391.73 784 253.46 784 111 784 C111 805.45 111 826.9 111 849 C249.27 849 387.54 849 530 849 C530 885.63 530 922.26 530 960 C391.73 960 253.46 960 111 960 C111 1007.52 111 1055.04 111 1104 C74.37 1104 37.74 1104 0 1104 C0 1056.48 0 1008.96 0 960 C-18.15 960 -36.3 960 -55 960 C-55 923.37 -55 886.74 -55 849 C-36.85 849 -18.7 849 0 849 C0 827.55 0 806.1 0 784 C-18.15 784 -36.3 784 -55 784 C-55 747.37 -55 710.74 -55 673 C-36.85 673 -18.7 673 0 673 C-0.1539624 666.87163574 -0.3079248 660.74327148 -0.46655273 654.42919922 C-1.06549984 628.9327046 -1.30622679 603.43611302 -1.50521421 577.93383479 C-1.54099694 573.39135972 -1.57839062 568.84889881 -1.61589557 564.30643768 C-1.75507248 547.43919966 -1.88584871 530.57190385 -2.01284999 513.70457012 C-2.05148973 508.57449915 -2.09056085 503.4444316 -2.12982559 498.31436539 C-2.73795594 418.7750076 -3.19758492 339.23788006 -3.1876502 259.69577312 C-3.18750199 256.72726856 -3.18796665 253.75876479 -3.18867874 250.79026031 C-3.24073526 31.86807857 -3.24073526 31.86807857 -0.49053192 4.82369232 C-0.39908638 3.92102174 -0.30764083 3.01835116 -0.21342421 2.08832693 C-0.14299422 1.39917904 -0.07256423 0.71003116 0 0 Z M111 111 C111 238.05 111 365.1 111 496 C167.285625 496.061875 223.57125 496.12375 281.5625 496.1875 C308.18723999 496.22846802 308.18723999 496.22846802 335.34985352 496.27026367 C351.30828007 496.2802991 351.30828007 496.2802991 367.26670837 496.28633118 C374.3557283 496.28911775 381.4446765 496.30007523 388.53367615 496.31672668 C396.72659781 496.33594241 404.9194512 496.34448012 413.11239552 496.34033485 C417.2955167 496.33854232 421.47848566 496.34120615 425.6615783 496.35764539 C480.11798472 496.56096303 529.90340717 483.73836232 570.7265625 446.0859375 C572.8389424 444.1477745 574.99998072 442.28976729 577.1875 440.4375 C581.19545111 436.9245548 584.62473969 433.11862122 588 429 C588.8353125 427.99066406 589.670625 426.98132813 590.53125 425.94140625 C597.47330525 417.41655251 603.45278672 408.48523922 609 399 C609.35690918 398.39607422 609.71381836 397.79214844 610.08154297 397.16992188 C634.34120006 355.64705178 640.61570056 302.866608 628.8125 256.5 C614.70466185 205.03802388 582.42632349 161.68499976 535.88671875 135.1171875 C506.80540133 119.05322169 475.19163729 110.6104095 441.94042969 110.75949097 C440.50287805 110.75861305 439.06532674 110.75685364 437.6277771 110.75430298 C433.72056409 110.74986975 429.81346312 110.75777074 425.90626431 110.76785454 C421.61192845 110.77666083 417.31759682 110.77366055 413.02325439 110.7722187 C404.70759259 110.77116036 396.39197439 110.78034629 388.07632375 110.79322136 C378.44671165 110.80768136 368.81712534 110.80921414 359.1875 110.81079102 C333.79165981 110.82127065 308.39582924 110.84919309 283 110.875 C226.24 110.91625 169.48 110.9575 111 111 Z " fill="#000000" transform="translate(55,0)"/>
</svg>
